<svg width="150" height="150" viewBox="0 0 150 150" fill="none" xmlns="http://www.w3.org/2000/svg">
<mask id="mask0_929_69" style="mask-type:alpha" maskUnits="userSpaceOnUse" x="0" y="0" width="150" height="150">
<rect width="149.67" height="149.67" fill="#D9D9D9"/>
</mask>
<g mask="url(#mask0_929_69)">
<path d="M31.1815 137.198C27.7515 137.198 24.8153 135.976 22.3728 133.534C19.9303 131.091 18.709 128.155 18.709 124.725V49.8901C18.709 46.4601 19.9303 43.5239 22.3728 41.0814C24.8153 38.6388 27.7515 37.4176 31.1815 37.4176H43.654C43.654 28.7908 46.6942 21.4372 52.7745 15.3568C58.8548 9.2765 66.2084 6.23633 74.8352 6.23633C83.462 6.23633 90.8156 9.2765 96.896 15.3568C102.976 21.4372 106.016 28.7908 106.016 37.4176H118.489C121.919 37.4176 124.855 38.6388 127.298 41.0814C129.74 43.5239 130.961 46.4601 130.961 49.8901V124.725C130.961 128.155 129.74 131.091 127.298 133.534C124.855 135.976 121.919 137.198 118.489 137.198H31.1815ZM74.8352 87.3076C83.462 87.3076 90.8156 84.2674 96.896 78.1871C102.976 72.1067 106.016 64.7531 106.016 56.1263H93.544C93.544 61.3232 91.7251 65.7405 88.0873 69.3784C84.4495 73.0162 80.0321 74.8351 74.8352 74.8351C69.6384 74.8351 65.221 73.0162 61.5832 69.3784C57.9454 65.7405 56.1265 61.3232 56.1265 56.1263H43.654C43.654 64.7531 46.6942 72.1067 52.7745 78.1871C58.8548 84.2674 66.2084 87.3076 74.8352 87.3076ZM56.1265 37.4176H93.544C93.544 32.2207 91.7251 27.8034 88.0873 24.1655C84.4495 20.5277 80.0321 18.7088 74.8352 18.7088C69.6384 18.7088 65.221 20.5277 61.5832 24.1655C57.9454 27.8034 56.1265 32.2207 56.1265 37.4176Z" fill="#494949"/>
</g>
</svg>
