<svg width="150" height="150" viewBox="0 0 150 150" fill="none" xmlns="http://www.w3.org/2000/svg">
<mask id="mask0_929_42" style="mask-type:alpha" maskUnits="userSpaceOnUse" x="0" y="0" width="150" height="150">
<rect width="149.67" height="149.67" fill="#D9D9D9"/>
</mask>
<g mask="url(#mask0_929_42)">
<path d="M74.835 137.198C65.0649 135.95 56.3341 133.456 48.6428 129.714C40.9514 125.972 34.4293 121.087 29.0765 115.059C23.7237 109.031 19.6442 102.041 16.8379 94.0896C14.0316 86.1384 12.6284 77.3297 12.6284 67.6635C24.0615 68.8068 33.7277 70.8855 41.627 73.8997C49.5262 76.9139 55.9444 81.1753 60.8814 86.684C65.8184 92.1927 69.3783 99.0786 71.561 107.342C73.7437 115.605 74.835 125.557 74.835 137.198ZM74.835 84.6572C72.4445 81.0194 69.1964 77.4336 65.0909 73.8997C60.9853 70.3658 56.2302 67.1438 50.8254 64.2335C51.4491 59.8682 52.4884 55.3469 53.9436 50.6697C55.3987 45.9925 57.1656 41.3933 59.2444 36.872C61.3231 32.3507 63.6877 28.0113 66.3381 23.8538C68.9885 19.6963 71.8208 15.9026 74.835 12.4727C77.8492 15.9026 80.6815 19.6963 83.3319 23.8538C85.9823 28.0113 88.3469 32.3507 90.4256 36.872C92.5044 41.3933 94.2713 45.9925 95.7264 50.6697C97.1816 55.3469 98.2209 59.8682 98.8446 64.2335C93.4398 67.0398 88.6847 70.2099 84.5792 73.7438C80.4736 77.2777 77.2256 80.9155 74.835 84.6572ZM87.3075 134.703C87.0996 127.428 86.554 120.698 85.6705 114.513C84.787 108.329 83.4099 102.483 81.539 96.9738C86.424 88.5549 93.154 81.695 101.729 76.3942C110.304 71.0934 122.075 68.1832 137.042 67.6635C137.146 84.0856 132.754 98.2471 123.868 110.148C114.981 122.049 102.794 130.234 87.3075 134.703Z" fill="#494949"/>
</g>
</svg>
